<svg class="svg-icon" style="width: 1em; height: 1em;vertical-align: middle;fill: currentColor;overflow: hidden;" viewBox="0 0 1024 1024" version="1.1" xmlns="http://www.w3.org/2000/svg"><path d="M512 512m-512 0a512 512 0 1 0 1024 0 512 512 0 1 0-1024 0Z" fill="#FFFFFF" /><path d="M176 240h672c17.6 0 32 14.4 32 32v480c0 17.6-14.4 32-32 32H176c-17.6 0-32-14.4-32-32V272c0-17.6 14.4-32 32-32z" fill="#09C45E" /><path d="M848 795.2H176c-24 0-43.2-19.2-43.2-43.2V272c0-24 19.2-43.2 43.2-43.2h672c24 0 43.2 19.2 43.2 43.2v480c0 24-19.2 43.2-43.2 43.2z m-672-544c-11.2 0-20.8 9.6-20.8 20.8v480c0 11.2 8.8 20.8 20.8 20.8h672c11.2 0 20.8-8.8 20.8-20.8V272c0-11.2-8.8-20.8-20.8-20.8H176z" fill="#333333" /><path d="M520 520m-88 0a88 88 0 1 0 176 0 88 88 0 1 0-176 0Z" fill="#FFFFFF" /><path d="M520 619.2c-55.2 0-99.2-44.8-99.2-99.2S464.8 420.8 520 420.8 619.2 464.8 619.2 520 575.2 619.2 520 619.2z m0-176c-42.4 0-76.8 34.4-76.8 76.8s34.4 76.8 76.8 76.8 76.8-34.4 76.8-76.8-34.4-76.8-76.8-76.8z" fill="#333333" /><path d="M144 416h80c8.8 0 16 7.2 16 16v160c0 8.8-7.2 16-16 16H144V416z" fill="#FFFFFF" /><path d="M224 619.2H132.8V404.8H224c15.2 0 27.2 12 27.2 27.2v160c0 15.2-12 27.2-27.2 27.2z m-68.8-22.4H224c2.4 0 4.8-1.6 4.8-4.8V432c0-2.4-1.6-4.8-4.8-4.8h-68.8v169.6z" fill="#333333" /><path d="M880 416h-80c-8.8 0-16 7.2-16 16v160c0 8.8 7.2 16 16 16h80V416z" fill="#FFFFFF" /><path d="M891.2 619.2H800c-15.2 0-27.2-12-27.2-27.2V432c0-15.2 12-27.2 27.2-27.2h91.2v214.4z m-91.2-192c-2.4 0-4.8 1.6-4.8 4.8v160c0 2.4 1.6 4.8 4.8 4.8h68.8V427.2H800z" fill="#333333" /><path d="M507.2 235.2h25.6v553.6h-25.6z" fill="#333333" /></svg>