<?xml version="1.0" standalone="no"?>
<!DOCTYPE svg PUBLIC "-//W3C//DTD SVG 20010904//EN"
 "http://www.w3.org/TR/2001/REC-SVG-20010904/DTD/svg10.dtd">
<svg version="1.0" xmlns="http://www.w3.org/2000/svg"
 width="512.000000pt" height="512.000000pt" viewBox="0 0 512.000000 512.000000"
 preserveAspectRatio="xMidYMid meet">

<g transform="translate(0.000000,512.000000) scale(0.100000,-0.100000)"
fill="#000000" stroke="none">
<path d="M2370 5109 c-699 -81 -1278 -584 -1455 -1264 -75 -289 -70 -630 12
-915 99 -345 264 -611 817 -1315 108 -137 196 -253 196 -256 0 -4 -23 -10 -52
-13 -260 -35 -616 -159 -784 -274 -84 -57 -180 -161 -212 -229 -23 -49 -27
-71 -27 -143 1 -108 29 -174 112 -261 142 -150 360 -257 688 -338 286 -71 520
-96 900 -95 312 0 471 12 705 54 495 90 855 277 958 497 22 48 26 72 27 143 0
109 -28 174 -117 267 -75 78 -140 124 -268 188 -152 77 -454 167 -637 191 -29
3 -53 9 -53 13 0 3 111 147 245 320 450 575 607 818 721 1111 77 202 109 382
108 625 0 210 -15 317 -65 488 -234 787 -1007 1299 -1819 1206z m326 -203
c352 -22 734 -215 983 -498 170 -194 293 -441 348 -698 26 -122 26 -469 0
-590 -62 -286 -193 -550 -446 -898 -59 -81 -250 -331 -425 -555 -174 -225
-378 -490 -452 -590 -74 -100 -139 -182 -143 -182 -5 0 -89 108 -188 241 -99
132 -287 377 -419 545 -418 534 -546 712 -667 924 -102 182 -173 376 -203 562
-19 120 -19 365 0 485 110 683 682 1210 1366 1257 58 4 119 6 135 4 17 -1 66
-4 111 -7z m-493 -3888 c63 -84 153 -207 201 -273 47 -66 96 -125 109 -132 56
-31 101 -10 163 76 189 260 358 481 367 481 31 0 264 -42 357 -65 355 -86 611
-230 652 -367 30 -101 -62 -208 -264 -307 -305 -149 -718 -225 -1228 -225
-532 0 -956 82 -1274 247 -101 52 -199 145 -217 205 -47 160 205 335 635 442
121 31 314 67 364 69 17 1 46 -31 135 -151z"/>
<path d="M2497 4695 c-67 -68 -24 -175 70 -175 36 0 50 6 74 29 65 66 20 171
-74 171 -34 0 -50 -6 -70 -25z"/>
<path d="M2890 4622 c-23 -24 -30 -39 -30 -70 0 -57 27 -85 119 -121 183 -74
383 -241 495 -412 106 -163 161 -329 176 -526 5 -61 13 -121 19 -132 32 -58
114 -69 162 -22 28 28 29 33 29 124 0 326 -152 666 -404 905 -150 141 -373
271 -483 280 -48 4 -55 2 -83 -26z"/>
<path d="M2389 4105 c-226 -57 -415 -230 -497 -457 -25 -67 -27 -85 -27 -228
0 -143 2 -161 27 -228 40 -110 84 -178 173 -267 89 -89 158 -134 267 -173 67
-24 86 -26 228 -26 142 0 161 2 228 26 109 39 178 84 267 173 89 89 134 158
173 267 24 67 26 86 27 228 0 144 -2 160 -27 228 -40 110 -84 178 -173 267
-90 90 -159 134 -267 172 -62 22 -94 26 -208 29 -93 2 -152 -1 -191 -11z m273
-196 c92 -19 177 -66 249 -138 199 -199 199 -503 0 -702 -71 -70 -138 -109
-236 -134 -304 -78 -615 167 -615 485 0 225 164 433 383 486 66 16 152 17 219
3z"/>
</g>
</svg>
